<mxfile host="Electron" modified="2024-05-02T18:27:38.700Z" agent="Mozilla/5.0 (X11; Linux x86_64) AppleWebKit/537.36 (KHTML, like Gecko) draw.io/24.2.5 Chrome/120.0.6099.109 Electron/28.1.0 Safari/537.36" etag="D2ujbN14P3yBZpULGYAN" version="24.2.5" type="device">
  <diagram name="第 1 页" id="x4Pq4--Iyi2Wv1rQqaK8">
    <mxGraphModel dx="908" dy="663" grid="1" gridSize="10" guides="1" tooltips="1" connect="1" arrows="1" fold="1" page="1" pageScale="1" pageWidth="827" pageHeight="1169" math="0" shadow="0">
      <root>
        <mxCell id="0" />
        <mxCell id="1" parent="0" />
        <mxCell id="3_jdCwaPLl4w3Bd3Hnk3-1" value="" style="pointerEvents=1;verticalLabelPosition=bottom;shadow=0;dashed=0;align=center;html=1;verticalAlign=top;shape=mxgraph.electrical.signal_sources.source;aspect=fixed;points=[[0.5,0,0],[1,0.5,0],[0.5,1,0],[0,0.5,0]];elSignalType=dc2;elSourceType=dependent;" vertex="1" parent="1">
          <mxGeometry x="370" y="310" width="60" height="60" as="geometry" />
        </mxCell>
        <mxCell id="3_jdCwaPLl4w3Bd3Hnk3-2" value="" style="pointerEvents=1;verticalLabelPosition=bottom;shadow=0;dashed=0;align=center;html=1;verticalAlign=top;shape=mxgraph.electrical.signal_sources.source;aspect=fixed;points=[[0.5,0,0],[1,0.5,0],[0.5,1,0],[0,0.5,0]];elSignalType=dc2;elSourceType=dependent;" vertex="1" parent="1">
          <mxGeometry x="610" y="310" width="60" height="60" as="geometry" />
        </mxCell>
        <mxCell id="3_jdCwaPLl4w3Bd3Hnk3-3" value="" style="pointerEvents=1;verticalLabelPosition=bottom;shadow=0;dashed=0;align=center;html=1;verticalAlign=top;shape=mxgraph.electrical.resistors.resistor_2;rotation=90;" vertex="1" parent="1">
          <mxGeometry x="470" y="330" width="100" height="20" as="geometry" />
        </mxCell>
        <mxCell id="3_jdCwaPLl4w3Bd3Hnk3-8" value="" style="endArrow=none;html=1;strokeWidth=1;rounded=0;exitX=0.5;exitY=0;exitDx=0;exitDy=0;exitPerimeter=0;entryX=0.5;entryY=1;entryDx=0;entryDy=0;entryPerimeter=0;" edge="1" parent="1" target="3_jdCwaPLl4w3Bd3Hnk3-1">
          <mxGeometry width="100" relative="1" as="geometry">
            <mxPoint x="400" y="430" as="sourcePoint" />
            <mxPoint x="460" y="350" as="targetPoint" />
          </mxGeometry>
        </mxCell>
        <mxCell id="3_jdCwaPLl4w3Bd3Hnk3-10" value="" style="endArrow=none;html=1;strokeWidth=1;rounded=0;entryX=1;entryY=0.5;entryDx=0;entryDy=0;entryPerimeter=0;exitX=0.5;exitY=0;exitDx=0;exitDy=0;exitPerimeter=0;" edge="1" parent="1" target="3_jdCwaPLl4w3Bd3Hnk3-3">
          <mxGeometry width="100" relative="1" as="geometry">
            <mxPoint x="520" y="430" as="sourcePoint" />
            <mxPoint x="490" y="440" as="targetPoint" />
          </mxGeometry>
        </mxCell>
        <mxCell id="3_jdCwaPLl4w3Bd3Hnk3-11" value="" style="endArrow=none;html=1;strokeWidth=1;rounded=0;entryX=0.5;entryY=1;entryDx=0;entryDy=0;entryPerimeter=0;" edge="1" parent="1" target="3_jdCwaPLl4w3Bd3Hnk3-2">
          <mxGeometry width="100" relative="1" as="geometry">
            <mxPoint x="640" y="430" as="sourcePoint" />
            <mxPoint x="490" y="440" as="targetPoint" />
          </mxGeometry>
        </mxCell>
        <mxCell id="3_jdCwaPLl4w3Bd3Hnk3-12" value="gm Vgs" style="text;html=1;align=center;verticalAlign=middle;whiteSpace=wrap;rounded=0;noLabel=0;fontSize=20;" vertex="1" parent="1">
          <mxGeometry x="410" y="360" width="70" height="30" as="geometry" />
        </mxCell>
        <mxCell id="3_jdCwaPLl4w3Bd3Hnk3-13" value="r0" style="text;html=1;align=center;verticalAlign=middle;whiteSpace=wrap;rounded=0;fontSize=20;" vertex="1" parent="1">
          <mxGeometry x="520" y="360" width="60" height="30" as="geometry" />
        </mxCell>
        <mxCell id="3_jdCwaPLl4w3Bd3Hnk3-14" value="gmb Vbs" style="text;html=1;align=center;verticalAlign=middle;whiteSpace=wrap;rounded=0;fontSize=20;" vertex="1" parent="1">
          <mxGeometry x="640" y="360" width="82.5" height="30" as="geometry" />
        </mxCell>
        <mxCell id="3_jdCwaPLl4w3Bd3Hnk3-15" value="" style="endArrow=none;html=1;strokeWidth=1;rounded=0;" edge="1" parent="1">
          <mxGeometry width="100" relative="1" as="geometry">
            <mxPoint x="340" y="430" as="sourcePoint" />
            <mxPoint x="640" y="430" as="targetPoint" />
          </mxGeometry>
        </mxCell>
        <mxCell id="3_jdCwaPLl4w3Bd3Hnk3-16" value="" style="endArrow=none;html=1;strokeWidth=1;rounded=0;exitX=0;exitY=0.5;exitDx=0;exitDy=0;exitPerimeter=0;" edge="1" parent="1" source="3_jdCwaPLl4w3Bd3Hnk3-3">
          <mxGeometry width="100" relative="1" as="geometry">
            <mxPoint x="519.8000000000001" y="290" as="sourcePoint" />
            <mxPoint x="520" y="250" as="targetPoint" />
          </mxGeometry>
        </mxCell>
        <mxCell id="3_jdCwaPLl4w3Bd3Hnk3-17" value="" style="endArrow=none;html=1;strokeWidth=1;rounded=0;exitX=0.5;exitY=0;exitDx=0;exitDy=0;exitPerimeter=0;" edge="1" parent="1" source="3_jdCwaPLl4w3Bd3Hnk3-1">
          <mxGeometry width="100" relative="1" as="geometry">
            <mxPoint x="390" y="330" as="sourcePoint" />
            <mxPoint x="400" y="250" as="targetPoint" />
          </mxGeometry>
        </mxCell>
        <mxCell id="3_jdCwaPLl4w3Bd3Hnk3-18" value="" style="endArrow=none;html=1;strokeWidth=1;rounded=0;entryX=0.5;entryY=0;entryDx=0;entryDy=0;entryPerimeter=0;" edge="1" parent="1" target="3_jdCwaPLl4w3Bd3Hnk3-2">
          <mxGeometry width="100" relative="1" as="geometry">
            <mxPoint x="640" y="250" as="sourcePoint" />
            <mxPoint x="590" y="350" as="targetPoint" />
          </mxGeometry>
        </mxCell>
        <mxCell id="3_jdCwaPLl4w3Bd3Hnk3-19" value="" style="endArrow=none;html=1;strokeWidth=1;rounded=0;" edge="1" parent="1">
          <mxGeometry width="100" relative="1" as="geometry">
            <mxPoint x="400" y="250" as="sourcePoint" />
            <mxPoint x="760" y="250" as="targetPoint" />
          </mxGeometry>
        </mxCell>
        <mxCell id="3_jdCwaPLl4w3Bd3Hnk3-21" value="" style="endArrow=none;html=1;strokeWidth=1;rounded=0;" edge="1" parent="1">
          <mxGeometry width="100" relative="1" as="geometry">
            <mxPoint x="160" y="250" as="sourcePoint" />
            <mxPoint x="280" y="250" as="targetPoint" />
          </mxGeometry>
        </mxCell>
        <mxCell id="3_jdCwaPLl4w3Bd3Hnk3-22" value="+" style="text;html=1;align=center;verticalAlign=middle;whiteSpace=wrap;rounded=0;fontSize=20;" vertex="1" parent="1">
          <mxGeometry x="250" y="250" width="60" height="30" as="geometry" />
        </mxCell>
        <mxCell id="3_jdCwaPLl4w3Bd3Hnk3-23" value="-" style="text;html=1;align=center;verticalAlign=middle;whiteSpace=wrap;rounded=0;fontSize=20;" vertex="1" parent="1">
          <mxGeometry x="250" y="400" width="60" height="30" as="geometry" />
        </mxCell>
        <mxCell id="3_jdCwaPLl4w3Bd3Hnk3-25" value="Vgs" style="text;html=1;align=center;verticalAlign=middle;whiteSpace=wrap;rounded=0;fontSize=20;" vertex="1" parent="1">
          <mxGeometry x="250" y="325" width="60" height="30" as="geometry" />
        </mxCell>
        <mxCell id="3_jdCwaPLl4w3Bd3Hnk3-28" value="" style="verticalLabelPosition=bottom;shadow=0;dashed=0;align=center;html=1;verticalAlign=top;strokeWidth=1;shape=ellipse;" vertex="1" parent="1">
          <mxGeometry x="155" y="245" width="10" height="10" as="geometry" />
        </mxCell>
        <mxCell id="3_jdCwaPLl4w3Bd3Hnk3-29" value="" style="verticalLabelPosition=bottom;shadow=0;dashed=0;align=center;html=1;verticalAlign=top;strokeWidth=1;shape=ellipse;" vertex="1" parent="1">
          <mxGeometry x="755" y="245" width="10" height="10" as="geometry" />
        </mxCell>
        <mxCell id="3_jdCwaPLl4w3Bd3Hnk3-34" value="" style="endArrow=none;html=1;strokeWidth=1;rounded=0;" edge="1" parent="1">
          <mxGeometry width="100" relative="1" as="geometry">
            <mxPoint x="280" y="430" as="sourcePoint" />
            <mxPoint x="340" y="430" as="targetPoint" />
          </mxGeometry>
        </mxCell>
        <mxCell id="3_jdCwaPLl4w3Bd3Hnk3-35" value="-" style="text;html=1;align=center;verticalAlign=middle;whiteSpace=wrap;rounded=0;fontSize=20;" vertex="1" parent="1">
          <mxGeometry x="310" y="430" width="60" height="30" as="geometry" />
        </mxCell>
        <mxCell id="3_jdCwaPLl4w3Bd3Hnk3-36" value="+" style="text;html=1;align=center;verticalAlign=middle;whiteSpace=wrap;rounded=0;fontSize=20;" vertex="1" parent="1">
          <mxGeometry x="310" y="570" width="60" height="30" as="geometry" />
        </mxCell>
        <mxCell id="3_jdCwaPLl4w3Bd3Hnk3-37" value="" style="endArrow=none;html=1;strokeWidth=1;rounded=0;" edge="1" parent="1">
          <mxGeometry width="100" relative="1" as="geometry">
            <mxPoint x="200" y="600" as="sourcePoint" />
            <mxPoint x="440" y="600" as="targetPoint" />
          </mxGeometry>
        </mxCell>
        <mxCell id="3_jdCwaPLl4w3Bd3Hnk3-38" value="Vbs" style="text;html=1;align=center;verticalAlign=middle;whiteSpace=wrap;rounded=0;fontSize=20;" vertex="1" parent="1">
          <mxGeometry x="310" y="500" width="60" height="30" as="geometry" />
        </mxCell>
        <mxCell id="3_jdCwaPLl4w3Bd3Hnk3-39" value="" style="verticalLabelPosition=bottom;shadow=0;dashed=0;align=center;html=1;verticalAlign=top;strokeWidth=1;shape=ellipse;" vertex="1" parent="1">
          <mxGeometry x="195" y="595" width="10" height="10" as="geometry" />
        </mxCell>
        <mxCell id="3_jdCwaPLl4w3Bd3Hnk3-40" value="G" style="text;html=1;align=center;verticalAlign=middle;whiteSpace=wrap;rounded=0;fontSize=20;" vertex="1" parent="1">
          <mxGeometry x="130" y="255" width="60" height="30" as="geometry" />
        </mxCell>
        <mxCell id="3_jdCwaPLl4w3Bd3Hnk3-41" value="B" style="text;html=1;align=center;verticalAlign=middle;whiteSpace=wrap;rounded=0;fontSize=20;" vertex="1" parent="1">
          <mxGeometry x="170" y="565" width="60" height="30" as="geometry" />
        </mxCell>
        <mxCell id="3_jdCwaPLl4w3Bd3Hnk3-42" value="D" style="text;html=1;align=center;verticalAlign=middle;whiteSpace=wrap;rounded=0;fontSize=20;" vertex="1" parent="1">
          <mxGeometry x="730" y="250" width="60" height="30" as="geometry" />
        </mxCell>
        <mxCell id="3_jdCwaPLl4w3Bd3Hnk3-43" value="" style="verticalLabelPosition=bottom;shadow=0;dashed=0;align=center;html=1;verticalAlign=top;strokeWidth=1;shape=ellipse;" vertex="1" parent="1">
          <mxGeometry x="335" y="425" width="10" height="10" as="geometry" />
        </mxCell>
        <mxCell id="3_jdCwaPLl4w3Bd3Hnk3-44" value="S" style="text;html=1;align=center;verticalAlign=middle;whiteSpace=wrap;rounded=0;fontSize=20;" vertex="1" parent="1">
          <mxGeometry x="310" y="400" width="60" height="30" as="geometry" />
        </mxCell>
      </root>
    </mxGraphModel>
  </diagram>
</mxfile>
